# AST/ASF file generated using VICON BodyLanguage
# -----------------------------------------------
:version 1.10
:name VICON
:units
  mass 1.0
  length 0.45
  angle deg
:documentation
   .ast/.asf automatically generated from VICON data using
   VICON BodyBuilder and BodyLanguage model FoxedUp or BRILLIANT.MOD
:root
   order TX TY TZ RX RY RZ
   axis XYZ
   position 0 0 0  
   orientation 0 0 0 
:bonedata
  begin
     id 1 
     name lhipjoint
     direction 0.528046 -0.759594 0.379717 
     length 2.39752 
     axis 0 0 0  XYZ
  end
  begin
     id 2 
     name lfemur
     direction 0.34202 -0.939693 0  
     length 7.31175  
     axis 0 0 20  XYZ
    dof rx ry rz
    limits (-160.0 20.0)
           (-70.0 70.0)
           (-60.0 70.0)
  end
  begin
     id 3 
     name ltibia
     direction 0.34202 -0.939693 0   
     length 7.52482   
     axis 0 0 20   XYZ
    dof rx
    limits (-10.0 170.0)
  end
  begin
     id 4 
     name lfoot
     direction 0.0675379 -0.185559 0.980309   
     length 2.00961   
     axis -90 7.62852e-016 20   XYZ
    dof rx rz
    limits (-45.0 90.0)
           (-70.0 20.0)
  end
  begin
     id 5 
     name ltoes
     direction 1.5352e-011 -4.22286e-011 1   
     length 1.01383   
     axis -90 7.62852e-016 20   XYZ
    dof rx
    limits (-90.0 20.0)
  end
  begin
     id 6 
     name rhipjoint
     direction -0.510274 -0.769251 0.384544   
     length 2.36742  
     axis 0 0 0  XYZ 
  end
  begin
     id 7 
     name rfemur
     direction -0.34202 -0.939693 0   
     length 7.45325   
     axis 0 0 -20   XYZ
    dof rx ry rz
    limits (-160.0 20.0)
           (-70.0 70.0)
           (-70.0 60.0)
  end
  begin
     id 8 
     name rtibia
     direction -0.34202 -0.939693 0   
     length 7.49587   
     axis 0 0 -20   XYZ
    dof rx
    limits (-10.0 170.0)
 end
 begin
     id 9 
     name rfoot
     direction -0.106475 -0.292536 0.950308   
     length 2.20898  
     axis -90 -7.62852e-016 -20   XYZ
    dof rx rz
    limits (-45.0 90.0)
           (-20.0 70.0)
  end
  begin
     id 10 
     name rtoes
     direction -1.53597e-011 -4.22023e-011 1   
     length 1.10065   
     axis -90 -7.62852e-016 -20   XYZ
    dof rx
    limits (-90.0 20.0)
  end
  begin
     id 11 
     name lowerback
     direction 0.0260024 0.998026 -0.0571652   
     length 2.11214   
     axis 0 0 0   XYZ
    dof rx ry rz
    limits (-20.0 45.0)
           (-30.0 30.0)
           (-30.0 30.0)
  end
  begin
     id 12 
     name upperback
     direction 0.0216202 0.999542 -0.0211766   
     length 2.11689   
     axis 0 0 0   XYZ
    dof rx ry rz
    limits (-20.0 45.0)
           (-30.0 30.0)
           (-30.0 30.0)
  end
  begin
     id 13 
     name thorax
     direction 0.00883312 0.999944 0.00589057   
     length 2.11821   
     axis 0 0 0   XYZ
    dof rx ry rz
    limits (-20.0 45.0)
           (-30.0 30.0)
           (-30.0 30.0)
  end
  begin
     id 14 
     name lowerneck
     direction -0.059386 0.994433 0.0870401   
     length 1.81176   
     axis 0 0 0   XYZ
    dof rx ry rz
    limits (-20.0 45.0)
           (-30.0 30.0)
           (-30.0 30.0)
  end
  begin
     id 15 
     name upperneck
     direction 0.0506457 0.97328 -0.223967   
     length 1.82382   
     axis 0 0 0   XYZ
    dof rx ry rz
    limits (-20.0 45.0)
           (-30.0 30.0)
           (-30.0 30.0)
  end
  begin
     id 16
     name head
     direction 0.0205902 0.996147 -0.0852487  
     length 1.84805  
     axis 0 0 0   XYZ
    dof rx ry rz
    limits (-20.0 45.0)
           (-30.0 30.0)
           (-30.0 30.0)
  end
  begin
     id 17 
     name lclavicle
     direction 0.949493 0.303881 -0.0782325  
     length 3.60584  
     axis 0 0 0   XYZ
    dof ry rz
    limits (-20.0 10.0)
           (0.0 20.0)
  end
  begin
     id 18 
     name lhumerus
     direction 1 -4.48965e-011 1.48782e-027   
     length 4.95681   
     axis 180 -30 -90   XYZ
    dof rx ry rz
    limits (-60.0 90.0)
           (-90.0 90.0)
           (-90.0 90.0)
  end
  begin
     id 19
     name lradius
     direction 1 -4.48952e-011 2.06528e-027   
     length 3.40915   
     axis 180 -30 -90   XYZ
    dof rx
    limits (-10.0 170.0)
  end
  begin
     id 20
     name lwrist
     direction 1 -4.48964e-011 1.28021e-027   
     length 1.70457   
     axis -1.61767e-015 90 90   XYZ
    dof ry
    limits (-180.0 0.0)
 end
  begin
     id 21 
     name lhand
     direction 1 -4.49094e-011 2.54887e-027   
     length 0.616403   
     axis -1.63363e-015 90 90   XYZ
    dof rx rz
    limits (-90.0 90.0)
           (-45.0 45.0)
  end
  begin
     id 22 
     name lfingers
     direction 1 -4.49002e-011 5.11407e-027   
     length 0.49696   
     axis -3.26723e-015 90 90   XYZ
    dof rx
    limits (0.0 90.0)
  end
  begin
     id 23
     name lthumb
     direction 0.707107 -6.34998e-011 0.707107   
     length 0.713539   
     axis -90 45 -2.25915e-014   XYZ
    dof rx rz
    limits (-45.0 45.0)
           (-45.0 45.0)
  end
  begin
     id 24 
     name rclavicle
     direction -0.937751 0.334612 -0.0930482   
     length 3.46287  
     axis 0 0 0   XYZ 
    dof ry rz
    limits (-10.0 20.0)
           (-20.0 0.0)
  end
  begin
     id 25 
     name rhumerus
     direction -1 -4.48962e-011 3.59972e-027  
     length 5.352   
     axis 180 30 90   XYZ
    dof rx ry rz
    limits (-90.0 60.0)
           (-90.0 90.0)
           (-90.0 90.0)
  end
  begin
     id 26 
     name rradius
     direction -1 -4.48987e-011 -3.76925e-027   
     length 3.43721   
     axis 180 30 90   XYZ
    dof rx
    limits (-10.0 170.0)
  end
  begin
     id 27 
     name rwrist
     direction -1 -4.48943e-011 1.28112e-027   
     length 1.7186   
     axis -1.61767e-015 -90 -90   XYZ
    dof ry
    limits (-180.0 0.0)
  end
  begin
     id 28
     name rhand
     direction -1 -4.49027e-011 2.55483e-027   
     length 0.72009   
     axis -1.63363e-015 -90 -90   XYZ
    dof rx rz
    limits (-90.0 90.0)
           (-45.0 45.0)
  end
  begin
     id 29
     name rfingers
     direction -1 -4.48827e-011 5.14506e-027   
     length 0.580555   
     axis -3.26723e-015 -90 -90   XYZ
    dof rx
    limits (0.0 90.0)
  end
  begin
     id 30
     name rthumb
     direction -0.707107 -6.34936e-011 0.707107   
     length 0.833564   
     axis -90 -45 2.25915e-014   XYZ
    dof rx rz
    limits (-45.0 45.0)
           (-45.0 45.0)
  end
:hierarchy
  begin
    root lhipjoint rhipjoint lowerback
    lhipjoint lfemur
    lfemur ltibia
    ltibia lfoot
    lfoot ltoes
    rhipjoint rfemur
    rfemur rtibia
    rtibia rfoot
    rfoot rtoes
    lowerback upperback
    upperback thorax
    thorax lowerneck lclavicle rclavicle
    lowerneck upperneck
    upperneck head
    lclavicle lhumerus
    lhumerus lradius
    lradius lwrist
    lwrist lhand lthumb
    lhand lfingers
    rclavicle rhumerus
    rhumerus rradius
    rradius rwrist
    rwrist rhand rthumb
    rhand rfingers
  end

#!OML:ASF H:\Terrain\Patient Classification 1\Terrain2\Thursday\justin.ASF
:FULLY-SPECIFIED
:DEGREES
911
root 30.5611 18.0933 6.07354 358.11 4.166 354.224
lowerback 6.26413 -0.870947 4.75242
upperback 2.04514 -0.771201 5.01963
thorax -1.39352 -0.38786 2.5751
lowerneck -11.6479 -4.01995 -11.0368
upperneck 37.1702 -5.14512 5.79839
head 15.487 -2.95206 3.59565
rclavicle -1.98785e-016 4.37326e-014
rhumerus -29.347 -9.20549 -78.0982
rradius 28.1233
rwrist -8.82311
rhand -20.1174 12.1561
rfingers 7.12502
rthumb 6.22649 -17.7324
lclavicle -1.98785e-016 4.37326e-014
lhumerus -34.6013 11.754 85.6833
lradius 23.936
lwrist -3.82764
lhand -19.7668 20.7473
lfingers 7.12502
lthumb 6.56491 50.6255
rfemur -13.8975 -3.84507 29.1786
rtibia 23.9072
rfoot -5.98172 -1.64377
rtoes 13.5402
lfemur -15.6737 3.15877 -10.232
ltibia 63.1998
lfoot -3.76505 -13.3554
ltoes 4.3266
912
root 30.5636 18.0928 6.14239 358.03 4.25993 353.944
lowerback 6.26509 -0.954703 4.97235
upperback 2.09099 -0.869105 5.17944
thorax -1.34586 -0.435881 2.62571
lowerneck -11.6454 -3.96201 -11.0723
upperneck 37.2468 -5.02033 5.71867
head 15.5089 -2.91617 3.59095
rclavicle -1.40143e-014 5.80451e-014
rhumerus -29.1747 -9.02419 -78.0175
rradius 28.6367
rwrist -9.23162
rhand -20.009 11.9833
rfingers 7.12502
rthumb 6.33109 -17.9021
lclavicle -1.40143e-014 5.80451e-014
lhumerus -34.5756 11.4924 86.0089
lradius 24.3733
lwrist -3.08241
lhand -19.7915 20.601
lfingers 7.12502
lthumb 6.54107 50.48
rfemur -13.6056 -4.10151 29.4658
rtibia 23.9542
rfoot -6.28546 -1.49348
rtoes 14.0713
lfemur -16.2615 2.84059 -10.0191
ltibia 62.97
lfoot -5.26665 -13.1587
ltoes 0.734223
913
root 30.5662 18.0835 6.20253 357.941 4.23879 353.805
lowerback 6.46875 -0.950648 5.13593
upperback 2.10454 -0.835051 5.23639
thorax -1.44682 -0.419808 2.59519
lowerneck -11.6822 -3.9125 -10.9137
upperneck 37.3004 -4.9401 5.59578
head 15.5238 -2.87581 3.52438
rclavicle 2.28602e-015 8.11041e-014
rhumerus -28.977 -8.7144 -78.0233
rradius 28.9974
rwrist -9.89217
rhand -20.2291 11.8853
rfingers 7.12502
rthumb 6.11868 -18.0064
lclavicle 2.28602e-015 8.11041e-014
lhumerus -34.7144 11.055 86.3027
lradius 25.1364
lwrist -2.12229
lhand -20.2689 20.6463
lfingers 7.12502
lthumb 6.08022 50.5391
rfemur -13.3491 -4.2118 29.6094
rtibia 24.0015
rfoot -6.51311 -1.36861
rtoes 14.9572
lfemur -16.8004 2.66887 -9.97068
ltibia 62.5903
lfoot -6.56308 -12.9017
ltoes -2.3437
914
root 30.5743 18.0825 6.25996 358.041 4.22791 353.873
lowerback 6.53909 -0.91455 5.22922
upperback 2.06635 -0.773087 5.16772
thorax -1.52817 -0.389912 2.46851
lowerneck -11.7976 -3.94354 -10.9449
upperneck 37.3645 -4.98644 5.65129
head 15.5924 -2.89192 3.54781
rclavicle 1.0138e-014 4.77083e-015
rhumerus -28.8708 -8.37849 -78.0943
rradius 29.4492
rwrist -10.5828
rhand -20.3558 11.4794
rfingers 7.12502
rthumb 5.99636 -18.4158
lclavicle 1.0138e-014 4.77083e-015
lhumerus -34.5682 10.4707 86.5975
lradius 25.604
lwrist -0.988067
lhand -21.2284 19.8081
lfingers 7.12502
lthumb 5.15378 49.7255
rfemur -13.2417 -4.54781 29.5068
rtibia 24.0277
rfoot -6.74307 -0.973035
rtoes 15.7643
lfemur -17.5203 2.22436 -10.1786
ltibia 62.0388
lfoot -7.03218 -12.7656
ltoes 0.548648
915
root 30.5793 18.085 6.31756 358.208 4.24156 353.572
lowerback 6.50316 -0.873316 5.65712
upperback 1.97505 -0.686064 5.19734
thorax -1.60714 -0.348141 2.25453
lowerneck -11.6943 -3.98336 -11.0243
upperneck 37.3133 -5.11282 5.86036
head 15.5668 -2.92915 3.63142
rclavicle 1.33186e-014 -1.74931e-014
rhumerus -28.8942 -8.72425 -77.9735
rradius 29.8828
rwrist -10.523
rhand -19.9656 11.0139
rfingers 7.12502
rthumb 6.37298 -18.8702
lclavicle 1.33186e-014 -1.74931e-014
lhumerus -34.5065 9.95843 86.8119
lradius 26.1364
lwrist -0.376971
lhand -21.2728 19.4227
lfingers 7.12502
lthumb 5.1109 49.3411
rfemur -13.2399 -4.814 29.8174
rtibia 24.1115
rfoot -7.03734 -0.614935
rtoes 16.6741
lfemur -18.4117 1.59786 -9.91418
ltibia 61.3649
lfoot -7.24261 -12.6782
ltoes 4.8724
916
root 30.5819 18.0829 6.37467 358.316 4.11907 353.202
lowerback 6.58253 -0.808745 6.0551
upperback 1.89868 -0.558147 5.29266
thorax -1.73254 -0.287332 2.12456
lowerneck -11.6334 -4.00861 -10.9422
upperneck 37.2669 -5.18818 5.88271
head 15.5348 -2.94591 3.61281
rclavicle 6.95746e-015 4.53229e-014
rhumerus -28.8019 -8.97557 -77.86
rradius 30.1737
rwrist -10.4607
rhand -19.8131 11.1947
rfingers 7.12502
rthumb 6.52024 -18.685
lclavicle 6.95746e-015 4.53229e-014
lhumerus -34.6662 9.43896 87.0643
lradius 27.1033
lwrist -0.0695046
lhand -20.6166 20.7093
lfingers 7.12502
lthumb 5.7445 50.6114
rfemur -13.2447 -4.90533 30.2354
rtibia 24.2171
rfoot -7.28424 -0.363307
rtoes 17.0834
lfemur -19.1626 1.16299 -9.54214
ltibia 60.5766
lfoot -7.91433 -12.44
ltoes 4.95001
917
root 30.593 18.0837 6.43865 358.477 4.03454 353.272
lowerback 6.46929 -0.775991 6.08628
upperback 1.89564 -0.524527 5.26558
thorax -1.67273 -0.269704 2.07446
lowerneck -11.6717 -4.05225 -10.8613
upperneck 37.18 -5.21461 5.73756
head 15.496 -2.96216 3.52688
rclavicle 9.14409e-015 4.45278e-014
rhumerus -28.6101 -8.3664 -78.0826
rradius 30.6491
rwrist -11.7778
rhand -20.3962 11.9304
rfingers 7.12502
rthumb 5.95735 -17.9659
lclavicle 9.14409e-015 4.45278e-014
lhumerus -34.5399 8.85912 87.3944
lradius 27.7525
lwrist 0.61065
lhand -20.7301 20.8254
lfingers 7.12502
lthumb 5.6349 50.7305
rfemur -13.2814 -5.43363 30.1605
rtibia 24.2907
rfoot -7.54866 0.251385
rtoes 16.4243
lfemur -19.813 0.670781 -9.72768
ltibia 59.6295
lfoot -8.77152 -12.065
ltoes 2.74715
918
root 30.6008 18.0814 6.49927 358.587 4.05698 353.382
lowerback 6.39782 -0.753271 6.09424
upperback 1.94042 -0.505927 5.20172
thorax -1.58682 -0.258494 2.0004
lowerneck -11.7558 -4.05993 -10.9269
upperneck 37.0862 -5.23479 5.85096
head 15.478 -2.96166 3.58077
rclavicle 6.36111e-015 7.79236e-014
rhumerus -28.3898 -7.80286 -78.3066
rradius 31.16
rwrist -12.9934
rhand -20.9375 12.4514
rfingers 7.12502
rthumb 5.43467 -17.459
lclavicle 6.36111e-015 7.79236e-014
lhumerus -34.2829 8.4082 87.6232
lradius 28.2159
lwrist 1.10013
lhand -20.9132 19.8282
lfingers 7.12502
lthumb 5.45813 49.7379
rfemur -13.2548 -5.64167 30.0125
rtibia 24.4398
rfoot -7.9019 0.580276
rtoes 16.5181
lfemur -20.408 0.0211016 -9.9265
ltibia 58.5279
lfoot -9.5157 -11.6785
ltoes -0.0342124
919
root 30.6015 18.0742 6.5556 358.517 3.98199 353.2
lowerback 6.63618 -0.709858 6.32193
upperback 1.98365 -0.412243 5.20797
thorax -1.6751 -0.213003 1.87603
lowerneck -11.9108 -4.02336 -10.9295
upperneck 37.157 -5.20803 5.97684
head 15.5506 -2.93282 3.64245
rclavicle -6.16232e-015 5.56597e-015
rhumerus -28.1736 -8.39321 -77.9807
rradius 31.5499
rwrist -11.7158
rhand -19.4155 11.5376
rfingers 7.12502
rthumb 6.90406 -18.3298
lclavicle -6.16232e-015 5.56597e-015
lhumerus -34.0819 7.90314 87.8088
lradius 28.6988
lwrist 1.58414
lhand -19.757 20.8497
lfingers 7.12502
lthumb 6.57442 50.7277
rfemur -13.0832 -5.33897 30.1913
rtibia 24.7093
rfoot -8.3057 0.445047
rtoes 17.1503
lfemur -20.7808 -0.666081 -9.68771
ltibia 57.2837
lfoot -10.0842 -11.5247
ltoes -1.13597
920
root 30.6079 18.0731 6.61915 358.613 3.85675 353.188
lowerback 6.64553 -0.662257 6.41018
upperback 1.93253 -0.339259 5.15943
thorax -1.73308 -0.178405 1.7711
lowerneck -11.823 -4.02366 -10.8417
upperneck 37.165 -5.24025 5.96546
head 15.5329 -2.93707 3.61739
rclavicle -1.86858e-014 -3.89618e-014
rhumerus -28.1185 -9.66157 -77.3133
rradius 32.412
rwrist -9.19218
rhand -15.4664 8.23463
rfingers 7.12502
rthumb 10.7149 -21.4721
lclavicle -1.86858e-014 -3.89618e-014
lhumerus -33.9959 7.34346 87.9755
lradius 29.1862
lwrist 2.17181
lhand -18.7207 22.4798
lfingers 7.12502
lthumb 7.57476 52.3242
rfemur -13.0796 -5.61258 30.2332
rtibia 24.9948
rfoot -8.70498 0.708323
rtoes 15.9584
lfemur -21.1964 -1.42793 -9.61405
ltibia 55.9444
lfoot -10.7038 -11.6539
ltoes -2.09751
921
root 30.625 18.0698 6.68331 358.858 3.64815 353.372
lowerback 6.44744 -0.552497 6.40844
upperback 1.88415 -0.212763 5.06132
thorax -1.67112 -0.114886 1.65773
lowerneck -11.6347 -4.0862 -10.7555
upperneck 36.9523 -5.33561 5.86801
head 15.3867 -2.97647 3.53736
rclavicle -7.25564e-015 2.54444e-014
rhumerus -28.1325 -8.26712 -78.0047
rradius 33.1207
rwrist -13.6796
rhand -18.2656 9.56544
rfingers 7.12502
rthumb 8.01403 -20.2626
lclavicle -7.25564e-015 2.54444e-014
lhumerus -34.044 6.95987 88.0938
lradius 29.999
lwrist 2.09858
lhand -18.7762 22.792
lfingers 7.12502
lthumb 7.52122 52.6383
rfemur -13.2097 -5.94903 30.0133
rtibia 25.2826
rfoot -9.07376 1.2207
rtoes 15.7187
lfemur -21.6441 -2.23462 -9.79406
ltibia 54.5412
lfoot -11.4571 -11.789
ltoes -4.63642
922
root 30.6398 18.0581 6.73945 359.039 3.37146 353.268
lowerback 6.35753 -0.437118 6.62851
upperback 1.89645 -0.0560522 5.06666
thorax -1.60506 -0.0357562 1.52803
lowerneck -11.5544 -4.12448 -10.7479
upperneck 36.6852 -5.38454 5.84667
head 15.2407 -2.99485 3.51012
rclavicle -3.57812e-015 3.18055e-015
rhumerus -28.0636 -6.95626 -78.5789
rradius 33.2189
rwrist -14.6281
rhand -21.2378 12.4171
rfingers 7.12502
rthumb 5.14474 -17.5004
lclavicle -3.57812e-015 3.18055e-015
lhumerus -34.0096 6.55755 88.2329
lradius 30.9232
lwrist 1.59292
lhand -18.1357 23.0156
lfingers 7.12502
lthumb 8.13936 52.8389
rfemur -13.2986 -5.64389 30.0894
rtibia 25.5999
rfoot -9.4411 1.25197
rtoes 16.6174
lfemur -22.0669 -3.11846 -9.5776
ltibia 53.0688
lfoot -11.7061 -12.3171
ltoes -4.30277
923
root 30.6462 18.046 6.7904 359.289 3.23155 353.046
lowerback 6.25666 -0.433426 6.84917
upperback 1.81912 -0.0410107 5.11296
thorax -1.62842 -0.0300828 1.4525
lowerneck -11.5367 -4.10684 -10.896
upperneck 36.6226 -5.39957 6.06474
head 15.2208 -2.99367 3.62616
rclavicle -7.25564e-015 0
rhumerus -27.9802 -6.62069 -78.5968
rradius 33.9111
rwrist -14.5419
rhand -20.4414 12.0644
rfingers 7.12502
rthumb 5.91366 -17.8331
lclavicle -7.25564e-015 0
lhumerus -34.0621 6.30759 88.2487
lradius 31.8864
lwrist 0.940021
lhand -17.4751 23.4503
lfingers 7.12502
lthumb 8.77688 53.2478
rfemur -13.4947 -5.34938 30.3521
rtibia 25.8769
rfoot -9.75562 1.14593
rtoes 16.3966
lfemur -22.6388 -3.9661 -9.11211
ltibia 51.5077
lfoot -11.9364 -13.3184
ltoes -3.07614
924
root 30.6554 18.0349 6.84438 359.39 2.95784 353.016
lowerback 6.33268 -0.374472 6.9316
upperback 1.73635 0.0563749 5.06991
thorax -1.75424 0.0142755 1.35555
lowerneck -11.4067 -4.08733 -10.9233
upperneck 36.6638 -5.41411 6.15313
head 15.2158 -2.99578 3.66947
rclavicle 1.07344e-014 8.98507e-014
rhumerus -28.0799 -6.32446 -78.6042
rradius 34.4608
rwrist -14.2935
rhand -19.4979 11.9765
rfingers 7.12502
rthumb 6.82456 -17.8935
lclavicle 1.07344e-014 8.98507e-014
lhumerus -34.2039 5.86649 88.3182
lradius 32.651
lwrist 1.11949
lhand -17.9303 23.3574
lfingers 7.12502
lthumb 8.33763 53.1728
rfemur -13.5045 -5.05542 30.3604
rtibia 26.083
rfoot -9.9348 1.27533
rtoes 16.8922
lfemur -22.9215 -4.60622 -8.84781
ltibia 49.8559
lfoot -12.636 -14.3872
ltoes -3.60462
